<svg width="800" height="800" viewBox="0 0 800 800" fill="none" xmlns="http://www.w3.org/2000/svg">
<path fill-rule="evenodd" clip-rule="evenodd" d="M522.836 127.715C551.998 93.9152 571.656 46.8392 566.277 0C524.251 1.6 473.408 26.8459 443.274 60.6055C416.215 90.5651 392.593 138.436 398.944 184.355C445.823 187.835 493.673 161.554 522.836 127.715ZM627.959 425C629.132 546.078 738.786 586.355 740 586.875C739.11 589.715 722.486 644.265 682.24 700.664C647.415 749.384 611.295 797.905 554.385 798.945C498.486 799.945 480.487 767.188 416.539 767.188C352.631 767.188 332.65 797.901 279.744 799.941C224.816 801.901 182.952 747.231 147.884 698.672C76.1294 599.353 21.3226 418.003 94.9377 295.605C131.503 234.846 196.826 196.312 267.771 195.352C321.688 194.352 372.612 230.117 405.577 230.117C438.542 230.117 500.427 187.117 565.467 193.438C592.689 194.518 669.135 203.954 718.198 272.793C714.235 275.153 626.989 323.802 627.959 425Z" fill="white"/>
</svg>
