<svg width="800" height="800" viewBox="0 0 800 800" fill="none" xmlns="http://www.w3.org/2000/svg">
<path d="M373.5 620.6L540.9 591L542.45 590.65L456.35 488.2C427.476 454.032 398.759 419.732 370.2 385.3C370.2 384.8 459.15 139.85 459.65 139C508.863 223.252 557.763 307.686 606.35 392.3L753.85 648.05L755 650L207.6 649.95L373.5 620.6ZM45 589.4C45 589.25 85.55 518.8 135.15 432.85L225.35 276.5L330.45 188.3C388.25 139.85 435.7 100 435.85 100C435.477 101.479 434.923 102.907 434.2 104.25L320 349.05L208 589.45L126.5 589.55C81.65 589.6 45 589.55 45 589.4Z" fill="white"/>
</svg>
