<svg width="800" height="800" viewBox="0 0 800 800" fill="none" xmlns="http://www.w3.org/2000/svg">
<g clip-path="url(#clip0_7_515)">
<path d="M666.667 488.889H133.333V533.333H666.667V488.889Z" fill="white"/>
<path d="M685.333 297.111C682.565 288.091 676.914 280.228 669.247 274.729C661.58 269.229 652.32 266.397 642.889 266.666H590C594.09 281.4 592.992 297.091 586.889 311.111H643.333C666.667 376.444 704.889 481.111 711.111 499.555V666.666H88.8889V499.555C95.1111 481.111 156.667 311.111 156.667 311.111H212.889C206.786 297.091 205.687 281.4 209.778 266.666H157.111C147.841 266.301 138.705 268.967 131.086 274.26C123.467 279.553 117.781 287.185 114.889 296C44.4445 488.889 44.4445 491.111 44.4445 496.222V666.666C44.4445 678.454 49.127 689.758 57.4619 698.093C65.7969 706.428 77.1015 711.111 88.8889 711.111H711.111C722.898 711.111 734.203 706.428 742.538 698.093C750.873 689.758 755.556 678.454 755.556 666.666V496.222C755.556 491.111 755.556 488.889 685.333 297.111Z" fill="white"/>
<path d="M400 440.889L541.778 299.778C544.422 297.929 546.633 295.527 548.256 292.739C549.878 289.95 550.874 286.841 551.174 283.629C551.474 280.416 551.071 277.177 549.992 274.136C548.914 271.095 547.186 268.325 544.93 266.019C542.673 263.713 539.941 261.926 536.924 260.783C533.907 259.639 530.677 259.167 527.459 259.397C524.24 259.628 521.111 260.557 518.288 262.119C515.465 263.682 513.016 265.84 511.111 268.444L422.222 355.555V88.8887C422.222 82.995 419.881 77.3427 415.714 73.1752C411.546 69.0078 405.894 66.6665 400 66.6665C394.106 66.6665 388.454 69.0078 384.286 73.1752C380.119 77.3427 377.778 82.995 377.778 88.8887V355.555L288.889 267.778C284.704 263.623 279.041 261.3 273.144 261.321C267.247 261.342 261.599 263.704 257.444 267.889C253.289 272.073 250.967 277.737 250.988 283.634C251.008 289.531 253.371 295.178 257.556 299.333L400 440.889Z" fill="white"/>
</g>
<defs>
<clipPath id="clip0_7_515">
<rect width="800" height="800" fill="white"/>
</clipPath>
</defs>
</svg>
