<svg width="800" height="800" viewBox="0 0 800 800" fill="none" xmlns="http://www.w3.org/2000/svg">
<path d="M133.333 600V200" stroke="white" stroke-width="50" stroke-linecap="round"/>
<path d="M666.667 400V600" stroke="white" stroke-width="50" stroke-linecap="round"/>
<path d="M400 333.333C547.277 333.333 666.667 273.638 666.667 200C666.667 126.362 547.277 66.6665 400 66.6665C252.724 66.6665 133.333 126.362 133.333 200C133.333 273.638 252.724 333.333 400 333.333Z" stroke="white" stroke-width="50"/>
<path d="M666.667 400C666.667 473.637 547.277 533.333 400 533.333C252.724 533.333 133.333 473.637 133.333 400" stroke="white" stroke-width="50" stroke-linecap="round"/>
<path d="M666.667 600C666.667 673.637 547.277 733.333 400 733.333C252.724 733.333 133.333 673.637 133.333 600" stroke="white" stroke-width="50"/>
</svg>
