<svg width="800" height="800" viewBox="0 0 800 800" fill="none" xmlns="http://www.w3.org/2000/svg">
<g clip-path="url(#clip0_7_500)">
<path d="M766.667 100H100C91.1622 100.009 82.6888 103.524 76.4395 109.773C70.1902 116.022 66.6755 124.495 66.6667 133.333V200H100V133.333H766.667V566.667H300V600H366.667V633.333H333.333V666.667H533.333V633.333H500V600H766.667C775.504 599.991 783.978 596.476 790.227 590.227C796.476 583.978 799.991 575.504 800 566.667V133.333C799.991 124.495 796.476 116.022 790.227 109.773C783.978 103.524 775.504 100.009 766.667 100ZM466.667 633.333H400V600H466.667V633.333ZM241.667 233.333H25C18.3723 233.342 12.0186 235.979 7.33207 240.665C2.64557 245.352 0.00881931 251.706 0 258.333L0 708.333C0.00881931 714.961 2.64557 721.315 7.33207 726.001C12.0186 730.688 18.3723 733.324 25 733.333H241.667C248.294 733.324 254.648 730.688 259.335 726.001C264.021 721.315 266.658 714.961 266.667 708.333V258.333C266.658 251.706 264.021 245.352 259.335 240.665C254.648 235.979 248.294 233.342 241.667 233.333ZM233.333 700H33.3333V266.667H233.333V700ZM200 333.333H66.6667V300H200V333.333ZM200 400H66.6667V366.667H200V400ZM200 466.667H66.6667V433.333H200V466.667ZM166.667 500H200V533.333H166.667V500Z" fill="white"/>
</g>
<defs>
<clipPath id="clip0_7_500">
<rect width="800" height="800" fill="white"/>
</clipPath>
</defs>
</svg>
