<svg width="800" height="800" viewBox="0 0 800 800" fill="none" xmlns="http://www.w3.org/2000/svg">
<path d="M300 200H311.229C319.382 200 323.462 200 327.298 200.921C330.699 201.738 333.963 203.088 336.947 204.915C340.31 206.976 343.197 209.864 348.96 215.625L451.05 317.716C456.813 323.481 459.68 326.348 461.743 329.712C463.57 332.694 464.94 335.953 465.757 339.357C466.667 343.153 466.667 347.183 466.667 355.173V600M300 200H153.32C134.652 200 125.327 200 118.197 203.633C111.925 206.829 106.829 211.925 103.633 218.197C100 225.327 100 234.668 100 253.337V646.67C100 665.337 100 674.66 103.633 681.79C106.829 688.063 111.925 693.173 118.197 696.37C125.32 700 134.634 700 153.267 700H413.37C432 700 441.35 700 448.473 696.37C454.743 693.173 459.827 688.07 463.02 681.797C466.653 674.667 466.667 665.33 466.667 646.663V600M300 200V313.333C300 332.002 300 341.33 303.633 348.46C306.829 354.733 311.925 359.84 318.197 363.037C325.32 366.667 334.633 366.667 353.267 366.667H466.653M466.667 600H646.733C665.367 600 674.703 600 681.827 596.37C688.097 593.173 693.16 588.07 696.353 581.797C699.987 574.667 700 565.33 700 546.663V255.172C700 247.184 700 243.153 699.09 239.355C698.273 235.954 696.903 232.694 695.077 229.712C693.013 226.348 690.147 223.481 684.383 217.716L582.293 115.625C576.53 109.864 573.643 106.976 570.28 104.915C567.297 103.088 564.033 101.738 560.63 100.921C556.793 100 552.717 100 544.563 100H533.333M333.333 200.003V153.337C333.333 134.668 333.333 125.327 336.967 118.197C340.163 111.925 345.257 106.829 351.53 103.633C358.66 100 367.987 100 386.653 100H533.333M533.333 100V213.333C533.333 232.002 533.333 241.329 536.967 248.46C540.163 254.732 545.257 259.841 551.53 263.037C558.653 266.667 567.967 266.667 586.6 266.667H699.987" stroke="white" stroke-width="66.6667" stroke-linecap="round" stroke-linejoin="round"/>
</svg>
