<svg width="800" height="800" viewBox="0 0 800 800" fill="none" xmlns="http://www.w3.org/2000/svg">
<path d="M333.333 158.333L351.012 140.654C348.691 138.333 345.934 136.492 342.901 135.236C339.868 133.979 336.617 133.333 333.333 133.333V158.333ZM400 225L382.321 242.679C384.643 245.001 387.399 246.842 390.432 248.098C393.466 249.354 396.717 250.001 400 250V225ZM641.667 616.667H158.333V666.667H641.667V616.667ZM116.667 575V225H66.6667V575H116.667ZM158.333 183.333H333.333V133.333H158.333V183.333ZM315.654 176.013L382.321 242.679L417.679 207.321L351.012 140.654L315.654 176.013ZM683.333 291.667V575H733.333V291.667H683.333ZM400 250H641.667V200H400V250ZM158.333 616.667C135.321 616.667 116.667 598.013 116.667 575H66.6667C66.6667 625.625 107.708 666.667 158.333 666.667V616.667ZM641.667 666.667C692.292 666.667 733.333 625.625 733.333 575H683.333C683.333 598.013 664.679 616.667 641.667 616.667V666.667ZM733.333 291.667C733.333 241.042 692.292 200 641.667 200V250C664.679 250 683.333 268.654 683.333 291.667H733.333ZM116.667 225C116.667 201.988 135.321 183.333 158.333 183.333V133.333C107.708 133.333 66.6667 174.375 66.6667 225H116.667Z" fill="white"/>
</svg>
