<svg width="800" height="800" viewBox="0 0 800 800" fill="none" xmlns="http://www.w3.org/2000/svg">
<g clip-path="url(#clip0_7_536)">
<path d="M406.375 79.2998C263.15 76.0498 136.05 170.825 98.5498 309.125C100.25 308.475 96.7248 309.525 98.5498 309.125C-30.6252 394.15 -32.1752 579.425 90.3498 673.85L90.4748 673.6L90.2248 674.65C129.425 704.2 177.075 719.975 226.175 719.825H398.575L399.625 720.725H572.675C795.6 722.55 885.175 434 700.55 309.125C684.675 250.4 651.975 197.675 606.55 157.425L605.125 158.85L605.25 157.15C550.175 108.575 479.725 80.9748 406.425 79.2748L406.375 79.2998ZM394.4 217.575C435.8 216.15 478.375 229.825 510.55 255.85C550.775 289.45 573.7 339.45 572.65 391.8V409.125C690.35 406.775 690.35 584.525 572.65 582.175H399.6L399.35 582.425V581.125H226.175C213.925 581.125 201.825 578.525 190.625 573.45C135.55 548.575 122.4 476.175 165.1 433.35C207.95 390.65 280.2 403.8 305.2 458.875L405.6 358.475C372.275 314.975 324.1 285.175 270.325 274.625C270.975 274.375 271.625 273.85 272.15 273.975C303.65 239.35 347.8 219.025 394.55 217.6L394.4 217.575Z" fill="white"/>
</g>
<defs>
<clipPath id="clip0_7_536">
<rect width="800" height="800" fill="white"/>
</clipPath>
</defs>
</svg>
