<svg width="800" height="800" viewBox="0 0 800 800" fill="none" xmlns="http://www.w3.org/2000/svg">
<path fill-rule="evenodd" clip-rule="evenodd" d="M200 166.667C200 148.257 214.924 133.333 233.333 133.333C251.743 133.333 266.667 148.257 266.667 166.667C266.667 185.076 251.743 200 233.333 200C214.924 200 200 185.076 200 166.667ZM266.667 260.976C305.506 247.248 333.333 210.207 333.333 166.667C333.333 111.438 288.562 66.6665 233.333 66.6665C178.105 66.6665 133.333 111.438 133.333 166.667C133.333 210.207 161.16 247.248 200 260.976V539.023C161.16 552.75 133.333 589.793 133.333 633.333C133.333 688.563 178.105 733.333 233.333 733.333C288.562 733.333 333.333 688.563 333.333 633.333C333.333 591.113 307.169 555.003 270.169 540.336C281.726 497.883 320.551 466.666 366.667 466.666H433.333C543.79 466.666 633.333 377.123 633.333 266.666V260.976C672.173 247.248 700 210.207 700 166.667C700 111.438 655.23 66.6665 600 66.6665C544.77 66.6665 500 111.438 500 166.667C500 210.207 527.827 247.248 566.667 260.976V266.666C566.667 340.303 506.97 400 433.333 400H366.667C329.146 400 294.522 412.397 266.667 433.32V260.976ZM600 200C618.41 200 633.333 185.076 633.333 166.667C633.333 148.257 618.41 133.333 600 133.333C581.59 133.333 566.667 148.257 566.667 166.667C566.667 185.076 581.59 200 600 200ZM200 633.333C200 614.923 214.924 600 233.333 600C251.743 600 266.667 614.923 266.667 633.333C266.667 651.743 251.743 666.666 233.333 666.666C214.924 666.666 200 651.743 200 633.333Z" fill="white"/>
</svg>
