<svg width="800" height="800" viewBox="0 0 800 800" fill="none" xmlns="http://www.w3.org/2000/svg">
<g clip-path="url(#clip0_7_542)">
<path d="M750 475H650V375H600V600H200V200L425 199.978V150H325V50H275V150H200C186.743 150.013 174.033 155.285 164.659 164.659C155.285 174.033 150.013 186.743 150 200V275H50V325H150V475H50V525H150V600C150.015 613.256 155.288 625.965 164.661 635.339C174.035 644.712 186.744 649.985 200 650H275V750H325V650H475V750H525V650H600C613.255 649.982 625.963 644.709 635.336 635.336C644.709 625.963 649.982 613.255 650 600V525H750V475Z" fill="white"/>
<path d="M525 525H275V275H525V525ZM325 475H475V325H325V475Z" fill="white"/>
<path d="M775 325H725C724.923 258.72 698.559 195.176 651.691 148.309C604.824 101.441 541.28 75.0774 475 75V25C554.538 25.0867 630.794 56.7216 687.036 112.964C743.278 169.206 774.913 245.462 775 325Z" fill="white"/>
<path d="M650 325H600C599.961 291.86 586.779 260.088 563.345 236.655C539.912 213.221 508.14 200.039 475 200V150C521.396 150.056 565.875 168.512 598.682 201.318C631.488 234.125 649.944 278.604 650 325Z" fill="white"/>
</g>
<defs>
<clipPath id="clip0_7_542">
<rect width="800" height="800" fill="white"/>
</clipPath>
</defs>
</svg>
