<svg width="800" height="800" viewBox="0 0 800 800" fill="none" xmlns="http://www.w3.org/2000/svg">
<g clip-path="url(#clip0_7_550)">
<path d="M472.45 457.5C473.575 457.467 474.699 457.568 475.8 457.8L475.95 457.6L562.65 472.25C549.852 508.223 525.433 538.906 493.25 559.45L459.6 478.15L459.7 478.05C458.761 475.872 458.363 473.499 458.54 471.134C458.717 468.769 459.464 466.482 460.717 464.468C461.969 462.454 463.691 460.773 465.734 459.568C467.777 458.364 470.081 457.671 472.45 457.55V457.5ZM335.85 461.15C338.332 463.165 340.09 465.934 340.857 469.038C341.624 472.142 341.358 475.411 340.1 478.35L340.35 478.65L307.05 559.15C275.07 538.676 250.745 508.216 237.85 472.5L323.85 457.9L323.95 458.1C326.032 457.693 328.178 457.751 330.236 458.269C332.293 458.788 334.21 459.805 335.85 461.15ZM407.5 495.2C409.778 496.56 411.645 498.513 412.9 500.85H413.2L455.6 577.45C419.634 589.651 380.644 589.616 344.7 577.35L386.95 500.9H387.05C387.982 499.147 389.261 497.602 390.808 496.358C392.356 495.114 394.14 494.198 396.053 493.665C397.965 493.131 399.966 492.993 401.934 493.257C403.902 493.521 405.796 494.182 407.5 495.2ZM481.65 381.5L546.65 323.35C566.65 355.7 575.4 393.75 571.75 431.55L487.55 407.3L487.45 406.95C484.9 406.238 482.59 404.851 480.763 402.934C478.937 401.018 477.661 398.643 477.072 396.062C476.483 393.481 476.603 390.789 477.417 388.27C478.232 385.751 479.711 383.498 481.7 381.75L481.65 381.5ZM428.3 337.3C426.841 335.08 426.012 332.505 425.9 329.85H425.8L420.85 242.65C458.466 247.307 493.511 264.189 520.6 290.7L449.5 341.2L449.25 341.05C447.646 342.218 445.823 343.05 443.889 343.494C441.956 343.939 439.952 343.987 437.999 343.637C436.047 343.287 434.185 342.545 432.527 341.456C430.868 340.367 429.448 338.953 428.35 337.3H428.3ZM357.85 344.15C355.213 343.908 352.691 342.958 350.55 341.4L350.4 341.45L278.75 290.7C305.944 263.967 341.272 247.059 379.15 242.65L374.15 329.95L373.8 330.15C373.713 332.131 373.226 334.074 372.369 335.861C371.511 337.649 370.301 339.245 368.811 340.553C367.321 341.861 365.582 342.854 363.698 343.472C361.815 344.09 359.825 344.321 357.85 344.15ZM319.1 403.4C317.254 405.321 314.921 406.703 312.35 407.4L312.3 407.65L228.45 431.85C224.287 393.983 232.855 355.807 252.8 323.35L318.2 381.85L318.1 382.15C319.608 383.45 320.836 385.043 321.708 386.833C322.58 388.623 323.078 390.572 323.171 392.56C323.265 394.549 322.952 396.536 322.252 398.4C321.552 400.263 320.48 401.965 319.1 403.4ZM400 444.65L375.85 433.05L369.85 407.1L386.55 386.3H413.35L430 407.15L424 433.1L400 444.65Z" fill="white"/>
<path fill-rule="evenodd" clip-rule="evenodd" d="M730 185.7L798.75 484.2C800.975 494.101 800.281 504.436 796.75 513.95C794.821 519.339 792.017 524.373 788.45 528.85L595.95 768.3C590.93 774.481 584.569 779.44 577.35 782.8C576.05 783.45 574.65 784 573.25 784.55C567.227 786.842 560.844 788.044 554.4 788.1L245.65 788.2C238.368 788.109 231.178 786.567 224.499 783.666C217.82 780.764 211.786 776.56 206.75 771.3L206.4 770.95C205.6 770.1 204.8 769.25 204.05 768.3L11.55 529C7.99936 524.467 5.18177 519.406 3.19999 514C-0.244762 504.501 -0.920994 494.218 1.24999 484.35L69.9 185.8C71.7444 178.077 75.28 170.86 80.2517 164.669C85.2234 158.478 91.5073 153.468 98.65 150L376.85 17.0499C384.057 13.6125 391.94 11.8286 399.925 11.8286C407.91 11.8286 415.793 13.6125 423 17.0499L701.2 149.9C708.35 153.365 714.642 158.373 719.622 164.564C724.602 170.755 728.147 177.974 730 185.7ZM512.95 607.05C511.873 604.879 510.938 602.641 510.15 600.35C555.878 573.238 590.045 530.263 606.15 479.6L613.25 480.85C615.773 478.512 619.112 477.255 622.55 477.35C632.55 479.3 642.25 482.15 651.6 485.95C656.5 488.15 661.45 490.05 666.55 491.7L669.2 492.3L670.85 492.6L671.2 492.7L671.4 492.75C673.602 493.45 675.925 493.686 678.223 493.442C680.521 493.198 682.743 492.48 684.75 491.333C686.756 490.187 688.502 488.636 689.878 486.779C691.254 484.923 692.229 482.801 692.743 480.548C693.257 478.295 693.298 475.96 692.863 473.691C692.427 471.422 691.526 469.267 690.216 467.364C688.905 465.461 687.214 463.85 685.249 462.634C683.284 461.418 681.088 460.623 678.8 460.3C678.232 460.172 677.665 460.038 677.1 459.9L673.95 459.15C668.661 458.431 663.336 458.013 658 457.9C647.914 457.24 637.917 455.599 628.15 453C625.123 451.298 622.63 448.788 620.95 445.75L614.25 443.8C621.429 391.286 609.082 337.963 579.55 293.95C581.504 292.169 583.47 290.402 585.45 288.65C585.233 285.226 586.364 281.852 588.6 279.25C596.25 272.65 604.6 266.8 613.35 261.85C618.1 259.4 622.75 256.7 627.2 253.75C628.449 252.79 629.666 251.789 630.85 250.75C632.861 249.503 634.586 247.843 635.909 245.881C637.233 243.919 638.125 241.699 638.528 239.366C638.931 237.034 638.835 234.643 638.247 232.35C637.659 230.058 636.591 227.916 635.115 226.066C633.638 224.216 631.787 222.7 629.682 221.618C627.577 220.536 625.267 219.912 622.903 219.788C620.54 219.663 618.177 220.041 615.97 220.897C613.763 221.752 611.762 223.065 610.1 224.75L609.1 225.55C608.2 226.25 607.15 227.05 606.45 227.7C602.56 231.366 598.887 235.256 595.45 239.35C588.6 246.85 581.1 253.65 572.95 259.65C569.767 260.943 566.287 261.323 562.9 260.75L556.55 265.25C520.086 226.998 470.98 203.28 418.35 198.5L417.95 191.1C415.097 189.142 413.122 186.145 412.45 182.75C412.12 172.644 412.773 162.53 414.4 152.55C415.45 147.3 416.2 142.05 416.65 136.7V131.95C416.79 129.654 416.454 127.355 415.664 125.195C414.874 123.035 413.646 121.062 412.058 119.399C410.469 117.735 408.554 116.418 406.433 115.53C404.312 114.641 402.03 114.2 399.73 114.235C397.431 114.27 395.163 114.779 393.069 115.73C390.976 116.682 389.101 118.056 387.564 119.766C386.026 121.476 384.858 123.486 384.133 125.668C383.408 127.851 383.141 130.16 383.35 132.45V136.7C383.8 142.05 384.55 147.3 385.6 152.55C387.2 162.55 387.8 172.65 387.45 182.75C386.505 186.072 384.632 189.055 382.05 191.35L381.65 198.4C328.664 202.656 279.155 226.466 242.75 265.2C240.732 263.791 238.732 262.358 236.75 260.9C233.453 261.891 229.898 261.55 226.85 259.95C218.724 253.93 211.205 247.131 204.4 239.65C200.975 235.577 197.319 231.704 193.45 228.05C192.484 227.229 191.5 226.429 190.5 225.65L189.75 225.1C186.453 222.431 182.387 220.889 178.15 220.7C175.633 220.57 173.121 221.037 170.818 222.062C168.515 223.088 166.488 224.642 164.9 226.6C162.217 230.4 161.143 235.105 161.91 239.693C162.678 244.281 165.226 248.38 169 251.1L169.25 251.3L170.15 252.05L172.65 254.05C177.15 257.05 181.75 259.75 186.5 262.15C195.3 267.15 203.6 272.95 211.25 279.55C213.241 282.374 214.402 285.7 214.6 289.15L219.95 293.9C190.504 338.07 178.397 391.554 185.95 444.1L178.95 446.15C177.138 449.07 174.695 451.548 171.8 453.4C162.049 455.997 152.069 457.638 142 458.3C136.647 458.408 131.305 458.825 126 459.55L122.9 460.3L121.55 460.6H121.4L121.15 460.7C118.862 461.023 116.666 461.818 114.701 463.034C112.736 464.25 111.045 465.861 109.734 467.764C108.424 469.667 107.523 471.821 107.087 474.091C106.652 476.36 106.693 478.695 107.207 480.948C107.72 483.201 108.696 485.323 110.072 487.179C111.448 489.036 113.194 490.587 115.2 491.733C117.207 492.88 119.429 493.598 121.727 493.842C124.024 494.086 126.348 493.85 128.55 493.15H128.8L129.05 493.05H129.15C129.566 492.948 129.983 492.848 130.4 492.75L133.45 492.05C138.542 490.43 143.534 488.51 148.4 486.3C157.769 482.535 167.481 479.688 177.4 477.8C180.85 477.998 184.176 479.158 187 481.15L194.25 479.9C210.537 530.247 244.684 572.895 290.25 599.8L287.25 607.05C288.663 609.968 289.184 613.237 288.75 616.45C284.55 625.95 279.5 635.05 273.65 643.55C270.413 647.807 267.424 652.248 264.7 656.85L263.2 660L262.6 661.35C261.415 663.348 260.66 665.571 260.384 667.878C260.107 670.184 260.315 672.523 260.993 674.745C261.672 676.966 262.806 679.022 264.324 680.78C265.842 682.539 267.71 683.961 269.809 684.956C271.908 685.952 274.192 686.498 276.514 686.561C278.836 686.624 281.146 686.201 283.295 685.321C285.445 684.44 287.387 683.121 288.998 681.447C290.609 679.773 291.853 677.782 292.65 675.6V675.55C293.329 674.123 294.029 672.706 294.75 671.3C296.65 666.3 298.25 661.25 299.55 656.05C302.4 645.55 306.75 635.45 312.45 626.15C314.427 624.291 316.919 623.071 319.6 622.65L323.4 615.8C372.828 634.807 427.524 634.95 477.05 616.2C478.232 618.325 479.399 620.458 480.55 622.6C483.954 623.123 487.011 624.975 489.05 627.75C493.788 636.686 497.639 646.064 500.55 655.75C501.85 660.95 503.45 666.05 505.35 671.05L506.85 674.2L507.4 675.3C508.366 678.067 510.047 680.531 512.27 682.441C514.494 684.351 517.183 685.64 520.064 686.178C522.946 686.716 525.919 686.483 528.682 685.503C531.445 684.524 533.9 682.833 535.8 680.6C538.092 677.938 539.49 674.623 539.795 671.124C540.1 667.625 539.297 664.118 537.5 661.1L536.9 659.8L535.35 656.6C532.626 651.998 529.637 647.557 526.4 643.3C520.634 635.002 515.694 626.16 511.65 616.9C510.762 613.574 511.23 610.032 512.95 607.05Z" fill="white"/>
</g>
<defs>
<clipPath id="clip0_7_550">
<rect width="800" height="800" fill="white"/>
</clipPath>
</defs>
</svg>
