<svg width="800" height="800" viewBox="0 0 800 800" fill="none" xmlns="http://www.w3.org/2000/svg">
<path d="M700 533.333V240C700 202.663 700 183.994 692.733 169.734C686.343 157.189 676.143 146.991 663.6 140.599C649.34 133.333 630.67 133.333 593.333 133.333H206.666C169.329 133.333 150.661 133.333 136.401 140.599C123.856 146.991 113.657 157.189 107.266 169.734C99.9998 183.994 99.9998 202.663 99.9998 240V533.333M66.6665 533.333H733.333V560C733.333 597.336 733.333 616.006 726.066 630.266C719.676 642.81 709.477 653.01 696.933 659.4C682.673 666.666 664.003 666.666 626.666 666.666H173.333C135.996 666.666 117.328 666.666 103.067 659.4C90.5228 653.01 80.3242 642.81 73.9328 630.266C66.6665 616.006 66.6665 597.336 66.6665 560V533.333Z" stroke="white" stroke-width="66.6667" stroke-linejoin="round"/>
</svg>
