<svg width="800" height="800" viewBox="0 0 800 800" fill="none" xmlns="http://www.w3.org/2000/svg">
<g clip-path="url(#clip0_7_555)">
<path fill-rule="evenodd" clip-rule="evenodd" d="M624.491 137.911C661.187 158.311 708.095 146.22 729.265 110.86C750.436 75.4998 737.899 30.3028 701.204 9.90279C664.508 -10.4972 617.601 1.63263 596.389 36.9926C575.26 72.313 587.837 117.511 624.491 137.911ZM467.497 615.938C433.749 615.938 401.743 608.7 373.101 595.86L319.76 687.911C364.301 709.151 414.446 721.153 467.497 721.153C498.34 721.153 528.186 717.033 556.538 709.473C561.519 679.753 579.825 652.432 608.966 636.192C638.148 619.952 671.814 618.385 700.996 628.985C757.7 575.225 794.604 502.104 800 420.704L690.66 419.141C680.615 529.461 584.558 615.938 467.497 615.938ZM467.497 184.063C584.558 184.063 680.615 270.539 690.66 380.86L800 379.297C794.604 297.857 757.7 224.737 700.955 170.977C671.814 181.617 638.107 179.989 608.966 163.829C579.825 147.589 561.519 120.228 556.497 90.5083C528.145 82.9883 498.34 78.8676 467.455 78.8676C414.446 78.8676 364.301 90.8698 319.76 112.11L373.101 204.141C401.743 191.261 433.749 184.063 467.497 184.063ZM243.379 399.981C243.379 326.941 281.071 262.381 338.688 223.301L282.565 132.793C215.442 176.033 165.504 242.113 144.749 319.473C168.991 338.513 184.475 367.501 184.475 399.981C184.475 432.461 168.991 461.468 144.749 480.508C165.504 557.909 215.442 623.987 282.565 667.227L338.688 576.661C281.071 537.581 243.379 473.061 243.379 399.981ZM624.532 662.071C587.837 682.471 575.259 727.668 596.429 763.028C617.6 798.388 664.508 810.499 701.204 790.059C737.899 769.659 750.477 724.462 729.265 689.102C708.095 653.782 661.187 641.671 624.532 662.071ZM76.7535 326.075C34.3708 326.075 0 359.141 0 399.981C0 440.821 34.3708 473.907 76.7535 473.907C119.136 473.907 153.466 440.821 153.466 399.981C153.466 359.141 119.136 326.075 76.7535 326.075Z" fill="white"/>
</g>
<defs>
<clipPath id="clip0_7_555">
<rect width="800" height="800" fill="white"/>
</clipPath>
</defs>
</svg>
