<svg width="800" height="800" viewBox="0 0 800 800" fill="none" xmlns="http://www.w3.org/2000/svg">
<path fill-rule="evenodd" clip-rule="evenodd" d="M166.667 133.334C148.257 133.334 133.333 148.258 133.333 166.667V633.334C133.333 651.744 148.257 666.667 166.667 666.667H400H433.333C451.743 666.667 466.667 651.744 466.667 633.334V166.667C466.667 148.258 451.743 133.334 433.333 133.334H166.667ZM166.667 733.334H400H433.333H633.333C688.563 733.334 733.333 688.564 733.333 633.334V300C733.333 244.772 688.563 200 633.333 200H533.333V166.667C533.333 111.439 488.563 66.667 433.333 66.667H166.667C111.438 66.667 66.6667 111.439 66.6667 166.667V633.334C66.6667 688.564 111.438 733.334 166.667 733.334ZM633.333 666.667H527.643C531.327 656.24 533.333 645.02 533.333 633.334V266.667H633.333C651.743 266.667 666.667 281.591 666.667 300V633.334C666.667 651.744 651.743 666.667 633.333 666.667ZM233.333 466.667H166.667V533.334H233.333V466.667ZM266.667 466.667H333.333V533.334H266.667V466.667ZM433.333 466.667H366.667V533.334H433.333V466.667ZM566.667 466.667H633.333V533.334H566.667V466.667ZM633.333 333.334H566.667V400H633.333V333.334ZM166.667 333.334H233.333V400H166.667V333.334ZM333.333 333.334H266.667V400H333.333V333.334ZM366.667 333.334H433.333V400H366.667V333.334ZM233.333 200H166.667V266.667H233.333V200ZM266.667 200H333.333V266.667H266.667V200ZM433.333 200H366.667V266.667H433.333V200Z" fill="white"/>
</svg>
