<svg width="800" height="800" viewBox="0 0 800 800" fill="none" xmlns="http://www.w3.org/2000/svg">
<path fill-rule="evenodd" clip-rule="evenodd" d="M400 208.334C413.807 208.334 425 219.527 425 233.334V566.666C425 580.476 413.807 591.666 400 591.666C386.193 591.666 375 580.476 375 566.666V233.334C375 219.527 386.193 208.334 400 208.334Z" fill="white"/>
<path fill-rule="evenodd" clip-rule="evenodd" d="M202.159 279.965C212.096 270.38 227.923 270.665 237.509 280.602L335.937 382.644C345.28 392.327 345.28 407.67 335.937 417.357L237.509 519.397C227.923 529.334 212.096 529.62 202.159 520.034C192.222 510.447 191.936 494.62 201.522 484.684L259.088 425.004H133.336C119.529 425.004 108.336 413.814 108.336 400.004C108.336 386.197 119.529 375.004 133.336 375.004H259.099L201.522 315.315C191.936 305.378 192.222 289.551 202.159 279.965Z" fill="white"/>
<path fill-rule="evenodd" clip-rule="evenodd" d="M550.88 279.965C560.82 270.38 576.647 270.665 586.23 280.602L684.66 382.644C694.003 392.327 694.003 407.67 684.66 417.357L586.23 519.397C576.647 529.334 560.82 529.62 550.88 520.034C540.943 510.447 540.66 494.62 550.243 484.684L607.813 425.004L482.057 425C468.25 424.997 457.057 413.804 457.06 399.997C457.06 386.19 468.253 374.997 482.06 375L607.82 375.004L550.243 315.315C540.66 305.378 540.943 289.551 550.88 279.965Z" fill="white"/>
</svg>
