<svg width="800" height="800" viewBox="0 0 800 800" fill="none" xmlns="http://www.w3.org/2000/svg">
<path d="M345 160C310 132.5 272.5 112.5 230 97.5C267.5 120 305 140 335 170C332.5 197.5 297.5 215 257.5 212.5C255 210 260 210 260 205C250 202.5 237.5 205 230 200C230 197.5 235 197.5 232.5 195C225 190 215 187.5 207.5 182.5C207.5 180 212.5 180 215 177.5C207.5 172.5 197.5 170 190 162.5C192.5 160 195 162.5 197.5 157.5C190 152.5 182.5 147.5 177.5 140C180 137.5 182.5 140 185 137.5C182.5 130 172.5 125 170 117.5C175 117.5 177.5 120 182.5 115C177.5 107.5 167.5 105 165 95C167.5 92.5 172.5 95 175 92.5C175 85 170 80 167.5 72.5C175 70 185 72.5 192.5 70C192.5 67.5 190 65 190 62.5C200 57.5 210 62.5 220 65C222.5 60 217.5 60 220 55C227.5 55 235 60 245 60C247.5 55 240 55 240 50C250 50 257.5 55 265 60C267.5 57.5 265 55 267.5 50C275 52.5 280 57.5 287.5 62.5C292.5 62.5 290 57.5 292.5 55C300 57.5 305 65 310 67.5C315 67.5 312.5 62.5 315 60C322.5 65 327.5 72.5 332.5 77.5C337.5 77.5 335 72.5 340 72.5C355 90 370 110 367.5 135C367.5 147.5 357.5 155 345 160Z" fill="white"/>
<path d="M587.5 177.5C590 180 592.5 180 595 180C587.5 187.5 577.5 187.5 567.5 192.5C567.5 195 570 195 570 197.5C562.5 202.5 550 200 542.5 202.5C540 205 545 207.5 542.5 210C532.5 212.5 522.5 210 510 207.5C487.5 202.5 470 192.5 462.5 170C492.5 137.5 530 117.5 567.5 97.5C525 112.5 487.5 132.5 452.5 157.5C437.5 152.5 430 140 430 125C430 107.5 445 80 460 67.5L465 75C472.5 70 477.5 60 485 57.5C487.5 60 485 65 490 65C495 62.5 500 55 507.5 52.5C510 55 507.5 57.5 512.5 60C520 60 525 52.5 535 50C535 52.5 532.5 55 535 60C542.5 55 550 50 560 50C560 52.5 555 55 557.5 60C565 60 572.5 55 582.5 55C582.5 57.5 580 60 582.5 65C592.5 62.5 602.5 60 612.5 62.5C612.5 65 610 67.5 610 70C617.5 72.5 627.5 70 635 72.5C632.5 80 625 85 625 92.5C627.5 95 632.5 92.5 635 95C632.5 105 622.5 107.5 620 115C622.5 120 627.5 115 630 117.5C627.5 125 617.5 130 612.5 137.5C615 142.5 617.5 140 620 140C615 147.5 607.5 150 602.5 157.5C605 160 607.5 160 610 162.5C605 170 595 172.5 587.5 177.5Z" fill="white"/>
<path d="M385 400C385 445 350 490 305 500C260 510 220 477.5 217.5 432.5C215 387.5 247.5 342.5 290 332.5C342.5 317.5 385 350 385 400Z" fill="white"/>
<path d="M585 422.5C585 475 540 507.5 490 492.5C445 477.5 412.5 430 420 382.5C427.5 337.5 472.5 310 517.5 327.5C557.5 342.5 585 382.5 585 422.5Z" fill="white"/>
<path d="M402.5 485C427.5 485 452.5 495 470 515C500 547.5 497.5 595 465 622.5C432.5 650 380 652.5 347.5 625C322.5 605 312.5 580 317.5 547.5C325 515 347.5 497.5 377.5 487.5C385 487.5 392.5 485 402.5 485Z" fill="white"/>
<path d="M495 632.5C497.5 607.5 507.5 582.5 527.5 560C540 547.5 552.5 535 565 525C572.5 520 580 517.5 587.5 515C602.5 512.5 615 517.5 620 532.5C630 557.5 632.5 582.5 620 607.5C605 642.5 577.5 665 540 672.5C537.5 672.5 532.5 672.5 527.5 672.5C505 675 495 665 495 632.5Z" fill="white"/>
<path d="M172.5 567.5C172.5 567.5 172.5 562.5 172.5 560C175 532.5 190 522.5 217.5 530C260 542.5 300 592.5 302.5 637.5C302.5 665 290 677.5 262.5 672.5C225 667.5 200 647.5 185 615C175 600 172.5 585 172.5 567.5Z" fill="white"/>
<path d="M405 320C385 320 365 317.5 347.5 307.5C315 290 315 267.5 342.5 247.5C380 220 430 222.5 465 252.5C467.5 255 470 257.5 472.5 260C485 275 482.5 290 467.5 302.5C455 312.5 440 315 425 317.5C417.5 320 410 320 405 320Z" fill="white"/>
<path d="M400 750C370 750 345 737.5 322.5 715C312.5 705 312.5 695 325 687.5C342.5 677.5 360 672.5 380 670C405 667.5 430 667.5 455 675C460 677.5 467.5 680 472.5 682.5C487.5 690 490 697.5 477.5 712.5C477.5 712.5 477.5 712.5 475 715C457.5 737.5 432.5 750 400 750Z" fill="white"/>
<path d="M195 420C195 447.5 190 472.5 180 497.5C177.5 505 175 510 170 515C162.5 525 157.5 525 150 517.5C115 482.5 120 415 162.5 385C177.5 372.5 187.5 375 192.5 395C192.5 402.5 195 412.5 195 420Z" fill="white"/>
<path d="M672.5 457.5C672.5 477.5 665 500 650 517.5C642.5 525 637.5 525 630 517.5C622.5 507.5 617.5 495 615 482.5C607.5 457.5 605 430 607.5 402.5C607.5 397.5 610 390 612.5 385C617.5 375 622.5 372.5 632.5 380C657.5 395 672.5 422.5 672.5 457.5Z" fill="white"/>
<path d="M187.5 347.5C185 315 195 285 222.5 265C250 245 280 240 312.5 245C312.5 252.5 307.5 257.5 305 262.5C287.5 285 265 302.5 245 320C232.5 330 220 337.5 207.5 345C197.5 347.5 192.5 352.5 187.5 347.5Z" fill="white"/>
<path d="M615 350C610 352.5 602.5 350 597.5 345C580 335 562.5 322.5 547.5 310C530 295 515 280 500 265C497.5 260 492.5 255 492.5 250C507.5 242.5 557.5 245 582.5 267.5C607.5 287.5 622.5 327.5 615 350Z" fill="white"/>
</svg>
