<svg width="800" height="800" viewBox="0 0 800 800" fill="none" xmlns="http://www.w3.org/2000/svg">
<path d="M100 347.223C100 240.636 100 187.342 112.584 169.413C125.168 151.484 175.277 134.332 275.497 100.026L294.591 93.4905C346.833 75.6078 372.953 66.6665 400 66.6665C427.047 66.6665 453.167 75.6078 505.41 93.4905L524.503 100.026C624.723 134.332 674.833 151.484 687.417 169.413C700 187.342 700 240.636 700 347.223C700 363.32 700 380.78 700 399.713C700 587.646 558.7 678.85 470.047 717.576C446 728.08 433.977 733.333 400 733.333C366.023 733.333 354 728.08 329.952 717.576C241.299 678.85 100 587.646 100 399.713C100 380.78 100 363.32 100 347.223Z" stroke="white" stroke-width="50"/>
<path d="M566.667 400C566.667 421.887 562.357 443.56 553.98 463.78C545.603 484 533.327 502.373 517.85 517.85C502.373 533.327 484 545.603 463.78 553.98C443.56 562.357 421.887 566.667 400 566.667C378.113 566.667 356.44 562.357 336.22 553.98C315.998 545.603 297.625 533.327 282.149 517.85C266.672 502.373 254.396 484 246.02 463.78C237.644 443.56 233.333 421.887 233.333 400C233.333 378.113 237.644 356.44 246.02 336.22C254.396 315.999 266.672 297.625 282.149 282.149C297.625 266.672 315.999 254.396 336.22 246.02C356.44 237.644 378.113 233.333 400 233.333C421.887 233.333 443.56 237.644 463.78 246.02C484 254.396 502.373 266.672 517.85 282.149C533.327 297.625 545.603 315.999 553.98 336.22C562.357 356.44 566.667 378.113 566.667 400Z" stroke="white" stroke-width="50"/>
<path d="M461.593 463.78C464.943 443.56 466.667 421.887 466.667 400C466.667 378.113 464.943 356.44 461.593 336.22C458.24 315.999 453.33 297.625 447.14 282.149C440.95 266.672 433.6 254.396 425.513 246.02C417.423 237.644 408.753 233.333 400 233.333C391.247 233.333 382.577 237.644 374.487 246.02C366.4 254.396 359.05 266.672 352.86 282.149C346.67 297.625 341.76 315.999 338.407 336.22C335.057 356.44 333.333 378.113 333.333 400C333.333 421.887 335.057 443.56 338.407 463.78C341.757 484 346.67 502.373 352.86 517.85C359.05 533.327 366.4 545.603 374.487 553.98C382.577 562.357 391.247 566.667 400 566.667C408.753 566.667 417.423 562.357 425.513 553.98C433.6 545.603 440.95 533.327 447.14 517.85C453.33 502.373 458.24 484 461.593 463.78Z" stroke="white" stroke-width="50"/>
<path d="M233.333 400H566.667" stroke="white" stroke-width="50" stroke-linecap="round"/>
</svg>
