<svg width="800" height="800" viewBox="0 0 800 800" fill="none" xmlns="http://www.w3.org/2000/svg">
<path d="M466.667 700H166.667C135.604 700 120.073 700 107.821 694.927C91.486 688.16 78.5076 675.18 71.7413 658.847C66.6666 646.593 66.6666 631.063 66.6666 600C66.6666 568.937 66.6666 553.407 71.7413 541.153C78.5076 524.82 91.486 511.84 107.821 505.073C120.073 500 135.604 500 166.667 500H633.333C664.397 500 679.927 500 692.18 505.073C708.513 511.84 721.493 524.82 728.26 541.153C733.333 553.407 733.333 568.937 733.333 600C733.333 631.063 733.333 646.593 728.26 658.847C721.493 675.18 708.513 688.16 692.18 694.927C679.927 700 664.397 700 633.333 700H600" stroke="white" stroke-width="50" stroke-linecap="round"/>
<path d="M66.6666 400C66.6666 368.937 66.6666 353.407 71.7413 341.153C78.5076 324.819 91.486 311.841 107.821 305.075C120.073 300 135.604 300 166.667 300H633.333C664.397 300 679.927 300 692.18 305.075C708.513 311.841 721.493 324.819 728.26 341.153C733.333 353.407 733.333 368.937 733.333 400C733.333 431.063 733.333 446.593 728.26 458.847C721.493 475.18 708.513 488.16 692.18 494.927C679.927 500 664.397 500 633.333 500H166.667C135.604 500 120.073 500 107.821 494.927C91.486 488.16 78.5076 475.18 71.7413 458.847C66.6666 446.593 66.6666 431.063 66.6666 400Z" stroke="white" stroke-width="50"/>
<path d="M333.333 100H633.333C664.397 100 679.927 100 692.18 105.075C708.513 111.841 721.493 124.819 728.26 141.154C733.333 153.406 733.333 168.937 733.333 200C733.333 231.063 733.333 246.594 728.26 258.846C721.493 275.181 708.513 288.159 692.18 294.925C679.927 300 664.397 300 633.333 300H166.667C135.604 300 120.073 300 107.821 294.925C91.486 288.159 78.5076 275.181 71.7413 258.846C66.6666 246.594 66.6666 231.063 66.6666 200C66.6666 168.937 66.6666 153.406 71.7413 141.154C78.5076 124.819 91.486 111.841 107.821 105.075C120.073 100 135.604 100 166.667 100H200" stroke="white" stroke-width="50" stroke-linecap="round"/>
<path d="M166.667 433.333C185.076 433.333 200 418.409 200 400C200 381.59 185.076 366.667 166.667 366.667C148.257 366.667 133.333 381.59 133.333 400C133.333 418.409 148.257 433.333 166.667 433.333Z" fill="white"/>
<path d="M166.667 233.333C185.076 233.333 200 218.409 200 200C200 181.59 185.076 166.667 166.667 166.667C148.257 166.667 133.333 181.59 133.333 200C133.333 218.409 148.257 233.333 166.667 233.333Z" fill="white"/>
<path d="M166.667 633.333C185.076 633.333 200 618.409 200 600C200 581.59 185.076 566.667 166.667 566.667C148.257 566.667 133.333 581.59 133.333 600C133.333 618.409 148.257 633.333 166.667 633.333Z" fill="white"/>
</svg>
