<svg width="800" height="800" viewBox="0 0 800 800" fill="none" xmlns="http://www.w3.org/2000/svg">
<path d="M166.67 81.9344C166.67 81.9344 326.238 -4.82345 462.75 99.7344L386.35 362.227C386.35 362.227 300.794 303.367 237.348 309.723C173.903 316.097 90.2703 346.455 90.2703 346.455L166.67 81.9344ZM0.78125 657.134C36 638.927 88.8625 629.698 149.766 624.598C210.72 619.512 296.5 675.33 296.5 675.33L373.689 410.055C361.475 401.277 304.677 363.033 233.586 357.948C162.461 352.862 76.7828 392.703 76.7828 392.703L0.78125 657.134ZM337.663 698.695C351.613 704.194 397.381 747.727 473.556 751.592C549.748 755.372 633.777 716.047 633.777 716.047C633.777 716.047 708.611 454.172 710.122 453.158C710.637 452.883 709.178 453.914 708.609 454.172C637.366 482.055 600.997 486.212 548.459 487.467C495.114 488.755 413.664 435.756 413.664 435.756L337.663 698.695ZM503.141 127.461L426.586 388.425C426.586 388.425 488.778 449.362 576.378 444.312C664.031 439.208 711.584 411.586 723.216 407.684L799.219 144.4C799.219 144.4 698.272 186.559 632.264 178.916C566.225 171.27 525.147 143.214 503.141 127.461Z" fill="white"/>
</svg>
